<svg display="none" xmlns="http://www.w3.org/2000/svg">
    
    <symbol id="instagram" viewBox="0 0 20 20">
        <g>
            <path d="M11.9141 9.99988C11.9141 11.0585 11.0586 11.9139 10 11.9139C8.94141 11.9139 8.08594 11.0585 8.08594 9.99988C8.08594 8.94128 8.94141 8.08582 10 8.08582C11.0586 8.08582 11.9141 8.94128 11.9141 9.99988Z" fill="#000000"/>
            <path d="M14.4765 6.61316C14.3828 6.36316 14.2383 6.1366 14.0469 5.953C13.8633 5.7616 13.6367 5.61707 13.3867 5.52332C13.1836 5.44519 12.8789 5.35144 12.3203 5.3241C11.7148 5.29675 11.5312 5.28894 9.99998 5.28894C8.46483 5.28894 8.28514 5.29285 7.67967 5.3241C7.12108 5.35144 6.81639 5.44519 6.61327 5.52332C6.36327 5.61707 6.1367 5.7616 5.95311 5.953C5.7617 6.1366 5.61717 6.36316 5.52342 6.61316C5.4453 6.81628 5.35155 7.12097 5.3242 7.67957C5.29686 8.28503 5.28905 8.46472 5.28905 9.99988C5.28905 11.5311 5.29686 11.7147 5.3242 12.3202C5.35155 12.8788 5.44139 13.1835 5.52342 13.3866C5.61717 13.6366 5.7617 13.8632 5.95311 14.0468C6.1367 14.2382 6.36327 14.3827 6.61327 14.4764C6.81639 14.5546 7.12108 14.6483 7.67967 14.6757C8.28514 14.703 8.46483 14.7108 9.99998 14.7108C11.5351 14.7108 11.7148 14.7069 12.3203 14.6757C12.8789 14.6483 13.1836 14.5585 13.3867 14.4764C13.8867 14.285 14.2851 13.8866 14.4765 13.3866C14.5547 13.1835 14.6484 12.8788 14.6758 12.3202C14.7031 11.7147 14.7109 11.5311 14.7109 9.99988C14.7109 8.46472 14.707 8.28503 14.6758 7.67957C14.6484 7.12097 14.5547 6.81628 14.4765 6.61316ZM9.99998 12.9491C8.37108 12.9491 7.05077 11.6288 7.05077 9.99988C7.05077 8.37097 8.37108 7.05066 9.99998 7.05066C11.6289 7.05066 12.9492 8.37097 12.9492 9.99988C12.9492 11.6288 11.6289 12.9491 9.99998 12.9491ZM13.0664 7.62488C12.6875 7.62488 12.3789 7.31628 12.3789 6.93738C12.3789 6.55847 12.6875 6.24988 13.0664 6.24988C13.4453 6.24988 13.7539 6.55847 13.7539 6.93738C13.7539 7.31628 13.4453 7.62488 13.0664 7.62488Z" fill="#000000"/>
            <path d="M10 -0.00012207C4.47656 -0.00012207 0 4.47644 0 9.99988C0 15.5233 4.47656 19.9999 10 19.9999C15.5234 19.9999 20 15.5233 20 9.99988C20 4.47644 15.5234 -0.00012207 10 -0.00012207ZM15.707 12.3671C15.6797 12.9764 15.582 13.3944 15.4414 13.7616C15.1445 14.5311 14.5352 15.1444 13.7617 15.4413C13.3984 15.5819 12.9805 15.6796 12.3672 15.7069C11.7539 15.7343 11.5586 15.7421 10 15.7421C8.44141 15.7421 8.24609 15.7343 7.63281 15.7069C7.02344 15.6796 6.60547 15.5819 6.23828 15.4413C5.85547 15.2968 5.50781 15.0702 5.22266 14.7772C4.92969 14.4921 4.70312 14.1444 4.55859 13.7616C4.41797 13.3983 4.32031 12.9803 4.29297 12.3671C4.26562 11.7538 4.25781 11.5585 4.25781 9.99988C4.25781 8.44128 4.26562 8.24597 4.29297 7.63269C4.32031 7.02331 4.41797 6.60535 4.55859 6.23816C4.70312 5.85535 4.92969 5.50769 5.22266 5.22253C5.50781 4.92957 5.85547 4.703 6.23828 4.55847C6.60547 4.41785 7.01953 4.32019 7.63281 4.29285C8.24609 4.2655 8.44141 4.25769 10 4.25769C11.5586 4.25769 11.7539 4.2655 12.3672 4.29285C12.9766 4.32019 13.3945 4.41785 13.7617 4.55847C14.1445 4.703 14.4922 4.92957 14.7773 5.22253C15.0703 5.50769 15.2969 5.85535 15.4414 6.23816C15.582 6.60535 15.6797 7.01941 15.707 7.63269C15.7344 8.24597 15.7422 8.44128 15.7422 9.99988C15.7422 11.5585 15.7344 11.7538 15.707 12.3671Z" fill="#000000"/>
        </g>
    </symbol>
    <symbol id="item1" viewBox="0 0 44 39">
        <g>
            <path d="M14.041 0.0999971C9.45901 0.449997 5.38056 3.5 3.11475 7.45C-1.01405 14.8 1.2014 24.65 7.0925 30.65C12.9836 36.65 21.8454 39.2 30.3044 38.95C33.2752 38.85 36.3466 38.4 38.8138 36.7C42.3888 34.2 43.7482 29.6 43.8993 25.25C44.2518 16.5 42.9426 10 35.692 4.95C28.4414 -0.0500031 22.5503 -0.200003 14.041 0.0999971Z" fill="#9291D8"/>
            <path d="M24.8506 13.8955V27H21.2295V18.4131C20.6436 18.8584 20.0752 19.2188 19.5244 19.4941C18.9795 19.7695 18.2939 20.0332 17.4678 20.2852V17.3496C18.6865 16.957 19.6328 16.4854 20.3066 15.9346C20.9805 15.3838 21.5078 14.7041 21.8887 13.8955H24.8506Z" fill="#FDF9F5"/>
        </g>
    </symbol>
    <symbol id="item2" viewBox="0 0 44 39">
        <g>
            <path d="M13.0444 0.0926118C8.46244 0.442612 4.38398 3.49261 2.11818 7.44261C-2.01063 14.7926 0.204828 24.6426 6.09593 30.6426C11.987 36.6426 20.8489 39.1926 29.3079 38.9426C32.2786 38.8426 35.35 38.3926 37.8172 36.6926C41.3922 34.1926 42.7517 29.5926 42.9027 25.2426C43.2552 16.4926 41.946 9.99261 34.6955 4.94261C27.4449 -0.0573883 21.5538 -0.207388 13.0444 0.0926118Z" fill="#D09D4F"/>
            <path d="M26.2183 26.9926H15.478C15.6011 25.9321 15.9732 24.936 16.5942 24.0043C17.2212 23.0668 18.3931 21.9623 20.1099 20.6909C21.1587 19.9116 21.8296 19.3198 22.1226 18.9155C22.4155 18.5112 22.562 18.1274 22.562 17.7641C22.562 17.3715 22.4155 17.0375 22.1226 16.7621C21.8355 16.4809 21.4722 16.3403 21.0327 16.3403C20.5757 16.3403 20.2007 16.4838 19.9077 16.7709C19.6206 17.058 19.4273 17.5649 19.3276 18.2914L15.7417 18.0014C15.8823 16.9936 16.1401 16.2084 16.5151 15.6459C16.8901 15.0776 17.4175 14.644 18.0972 14.3452C18.7827 14.0405 19.729 13.8881 20.936 13.8881C22.1958 13.8881 23.1743 14.0317 23.8716 14.3188C24.5747 14.6059 25.1255 15.0483 25.5239 15.6459C25.9282 16.2377 26.1304 16.9028 26.1304 17.6411C26.1304 18.4262 25.8989 19.1762 25.436 19.8911C24.979 20.6059 24.1441 21.3911 22.9312 22.2465C22.2105 22.7446 21.7271 23.0932 21.481 23.2924C21.2407 23.4916 20.9566 23.7524 20.6284 24.0746H26.2183V26.9926Z" fill="#FDF9F5"/>
        </g>
    </symbol>
    <symbol id="item3" viewBox="0 0 44 39">
        <g>
            <path d="M13.0444 0.0926118C8.46244 0.442612 4.38398 3.49261 2.11818 7.44261C-2.01063 14.7926 0.204828 24.6426 6.09593 30.6426C11.987 36.6426 20.8489 39.1926 29.3079 38.9426C32.2786 38.8426 35.35 38.3926 37.8172 36.6926C41.3922 34.1926 42.7517 29.5926 42.9027 25.2426C43.2552 16.4926 41.946 9.99261 34.6955 4.94261C27.4449 -0.0573883 21.5538 -0.207388 13.0444 0.0926118Z" fill="#FFA959"/>
            <path d="M19.2134 17.8344L15.8296 17.228C16.1108 16.1498 16.6499 15.3237 17.4468 14.7495C18.2495 14.1752 19.3833 13.8881 20.8482 13.8881C22.5298 13.8881 23.7456 14.2016 24.4956 14.8286C25.2456 15.4555 25.6206 16.2436 25.6206 17.1928C25.6206 17.7495 25.4683 18.2534 25.1636 18.7045C24.8589 19.1557 24.3989 19.5512 23.7837 19.8911C24.2817 20.0141 24.6626 20.1577 24.9263 20.3217C25.354 20.5854 25.6851 20.934 25.9194 21.3676C26.1597 21.7953 26.2798 22.308 26.2798 22.9057C26.2798 23.6557 26.0835 24.3764 25.6909 25.0678C25.2983 25.7534 24.7329 26.2836 23.9946 26.6586C23.2564 27.0278 22.2866 27.2123 21.0855 27.2123C19.9136 27.2123 18.9878 27.0746 18.3081 26.7993C17.6343 26.5239 17.0776 26.1225 16.6382 25.5952C16.2046 25.062 15.8706 24.394 15.6362 23.5912L19.2134 23.1166C19.354 23.8373 19.5708 24.3383 19.8638 24.6196C20.1626 24.895 20.5405 25.0327 20.9976 25.0327C21.478 25.0327 21.8765 24.8569 22.1929 24.5053C22.5151 24.1537 22.6763 23.685 22.6763 23.0991C22.6763 22.5014 22.521 22.0385 22.2105 21.7104C21.9058 21.3823 21.4898 21.2182 20.9624 21.2182C20.6812 21.2182 20.2944 21.2885 19.8023 21.4291L19.9868 18.8715C20.186 18.9008 20.3413 18.9155 20.4526 18.9155C20.9214 18.9155 21.311 18.7661 21.6216 18.4672C21.938 18.1684 22.0962 17.8139 22.0962 17.4037C22.0962 17.0112 21.979 16.6977 21.7446 16.4633C21.5103 16.2289 21.188 16.1118 20.7778 16.1118C20.356 16.1118 20.0132 16.2407 19.7495 16.4985C19.4858 16.7504 19.3071 17.1957 19.2134 17.8344Z" fill="#FDF9F5"/>
        </g>
    </symbol>
    <symbol id="item4" viewBox="0 0 44 39">
        <g>
            <path d="M13.0444 0.0926118C8.46244 0.442612 4.38398 3.49261 2.11818 7.44261C-2.01063 14.7926 0.204828 24.6426 6.09593 30.6426C11.987 36.6426 20.8489 39.1926 29.3079 38.9426C32.2786 38.8426 35.35 38.3926 37.8172 36.6926C41.3922 34.1926 42.7517 29.5926 42.9027 25.2426C43.2552 16.4926 41.946 9.99261 34.6955 4.94261C27.4449 -0.0573883 21.5538 -0.207388 13.0444 0.0926118Z" fill="#9291D8"/>
            <path d="M21.8941 24.5844H15.3726V21.6401L21.8941 13.8881H25.0142V21.8071H26.6314V24.5844H25.0142V26.9926H21.8941V24.5844ZM21.8941 21.8071V17.7553L18.4487 21.8071H21.8941Z" fill="#FDF9F5"/>
        </g>
    </symbol>
    <symbol id="item5" viewBox="0 0 44 39">
        <g>
            <path d="M13.0444 0.0926118C8.46244 0.442612 4.38398 3.49261 2.11818 7.44261C-2.01063 14.7926 0.204828 24.6426 6.09593 30.6426C11.987 36.6426 20.8489 39.1926 29.3079 38.9426C32.2786 38.8426 35.35 38.3926 37.8172 36.6926C41.3922 34.1926 42.7517 29.5926 42.9027 25.2426C43.2552 16.4926 41.946 9.99261 34.6955 4.94261C27.4449 -0.0573883 21.5538 -0.207388 13.0444 0.0926118Z" fill="#D09D4F"/>
            <path d="M17.1919 14.1078H25.6909V16.9643H19.9341L19.6265 18.8979C20.0249 18.7104 20.4175 18.5698 20.8042 18.476C21.1968 18.3823 21.5835 18.3354 21.9644 18.3354C23.2534 18.3354 24.2993 18.725 25.1021 19.5043C25.9048 20.2836 26.3062 21.2651 26.3062 22.4487C26.3062 23.2807 26.0982 24.0805 25.6821 24.8481C25.272 25.6157 24.686 26.2016 23.9243 26.6059C23.1685 27.0102 22.1987 27.2123 21.0151 27.2123C20.1655 27.2123 19.436 27.1332 18.8267 26.975C18.2232 26.811 17.7075 26.5707 17.2798 26.2543C16.8579 25.9321 16.5151 25.5688 16.2515 25.1645C15.9878 24.7602 15.7681 24.2563 15.5923 23.6528L19.2134 23.2573C19.3013 23.8373 19.5064 24.2797 19.8286 24.5844C20.1509 24.8832 20.5347 25.0327 20.98 25.0327C21.478 25.0327 21.8882 24.8452 22.2105 24.4702C22.5386 24.0893 22.7026 23.5239 22.7026 22.7739C22.7026 22.0063 22.5386 21.4438 22.2105 21.0864C21.8823 20.7289 21.4458 20.5502 20.9009 20.5502C20.5552 20.5502 20.2212 20.6352 19.8989 20.8051C19.6587 20.9282 19.395 21.1508 19.1079 21.4731L16.0581 21.0336L17.1919 14.1078Z" fill="#FDF9F5"/>
        </g>
    </symbol>


</svg>