<svg width="44" height="39" viewBox="0 0 44 39" fill="none" xmlns="http://www.w3.org/2000/svg">
<path d="M14.041 0.0999971C9.45901 0.449997 5.38056 3.5 3.11475 7.45C-1.01405 14.8 1.2014 24.65 7.0925 30.65C12.9836 36.65 21.8454 39.2 30.3044 38.95C33.2752 38.85 36.3466 38.4 38.8138 36.7C42.3888 34.2 43.7482 29.6 43.8993 25.25C44.2518 16.5 42.9426 10 35.692 4.95C28.4414 -0.0500031 22.5503 -0.200003 14.041 0.0999971Z" fill="#9291D8"/>
<path d="M24.8506 13.8955V27H21.2295V18.4131C20.6436 18.8584 20.0752 19.2188 19.5244 19.4941C18.9795 19.7695 18.2939 20.0332 17.4678 20.2852V17.3496C18.6865 16.957 19.6328 16.4854 20.3066 15.9346C20.9805 15.3838 21.5078 14.7041 21.8887 13.8955H24.8506Z" fill="#FDF9F5"/>
</svg>
