<svg width="43" height="39" viewBox="0 0 43 39" fill="none" xmlns="http://www.w3.org/2000/svg">
<path d="M13.0444 0.0926118C8.46244 0.442612 4.38398 3.49261 2.11818 7.44261C-2.01063 14.7926 0.204828 24.6426 6.09593 30.6426C11.987 36.6426 20.8489 39.1926 29.3079 38.9426C32.2786 38.8426 35.35 38.3926 37.8172 36.6926C41.3922 34.1926 42.7517 29.5926 42.9027 25.2426C43.2552 16.4926 41.946 9.99261 34.6955 4.94261C27.4449 -0.0573883 21.5538 -0.207388 13.0444 0.0926118Z" fill="#D09D4F"/>
<path d="M26.2183 26.9926H15.478C15.6011 25.9321 15.9732 24.936 16.5942 24.0043C17.2212 23.0668 18.3931 21.9623 20.1099 20.6909C21.1587 19.9116 21.8296 19.3198 22.1226 18.9155C22.4155 18.5112 22.562 18.1274 22.562 17.7641C22.562 17.3715 22.4155 17.0375 22.1226 16.7621C21.8355 16.4809 21.4722 16.3403 21.0327 16.3403C20.5757 16.3403 20.2007 16.4838 19.9077 16.7709C19.6206 17.058 19.4273 17.5649 19.3276 18.2914L15.7417 18.0014C15.8823 16.9936 16.1401 16.2084 16.5151 15.6459C16.8901 15.0776 17.4175 14.644 18.0972 14.3452C18.7827 14.0405 19.729 13.8881 20.936 13.8881C22.1958 13.8881 23.1743 14.0317 23.8716 14.3188C24.5747 14.6059 25.1255 15.0483 25.5239 15.6459C25.9282 16.2377 26.1304 16.9028 26.1304 17.6411C26.1304 18.4262 25.8989 19.1762 25.436 19.8911C24.979 20.6059 24.1441 21.3911 22.9312 22.2465C22.2105 22.7446 21.7271 23.0932 21.481 23.2924C21.2407 23.4916 20.9566 23.7524 20.6284 24.0746H26.2183V26.9926Z" fill="#FDF9F5"/>
</svg>
