<svg width="43" height="39" viewBox="0 0 43 39" fill="none" xmlns="http://www.w3.org/2000/svg">
<path d="M13.0444 0.0926118C8.46244 0.442612 4.38398 3.49261 2.11818 7.44261C-2.01063 14.7926 0.204828 24.6426 6.09593 30.6426C11.987 36.6426 20.8489 39.1926 29.3079 38.9426C32.2786 38.8426 35.35 38.3926 37.8172 36.6926C41.3922 34.1926 42.7517 29.5926 42.9027 25.2426C43.2552 16.4926 41.946 9.99261 34.6955 4.94261C27.4449 -0.0573883 21.5538 -0.207388 13.0444 0.0926118Z" fill="#FFA959"/>
<path d="M19.2134 17.8344L15.8296 17.228C16.1108 16.1498 16.6499 15.3237 17.4468 14.7495C18.2495 14.1752 19.3833 13.8881 20.8482 13.8881C22.5298 13.8881 23.7456 14.2016 24.4956 14.8286C25.2456 15.4555 25.6206 16.2436 25.6206 17.1928C25.6206 17.7495 25.4683 18.2534 25.1636 18.7045C24.8589 19.1557 24.3989 19.5512 23.7837 19.8911C24.2817 20.0141 24.6626 20.1577 24.9263 20.3217C25.354 20.5854 25.6851 20.934 25.9194 21.3676C26.1597 21.7953 26.2798 22.308 26.2798 22.9057C26.2798 23.6557 26.0835 24.3764 25.6909 25.0678C25.2983 25.7534 24.7329 26.2836 23.9946 26.6586C23.2564 27.0278 22.2866 27.2123 21.0855 27.2123C19.9136 27.2123 18.9878 27.0746 18.3081 26.7993C17.6343 26.5239 17.0776 26.1225 16.6382 25.5952C16.2046 25.062 15.8706 24.394 15.6362 23.5912L19.2134 23.1166C19.354 23.8373 19.5708 24.3383 19.8638 24.6196C20.1626 24.895 20.5405 25.0327 20.9976 25.0327C21.478 25.0327 21.8765 24.8569 22.1929 24.5053C22.5151 24.1537 22.6763 23.685 22.6763 23.0991C22.6763 22.5014 22.521 22.0385 22.2105 21.7104C21.9058 21.3823 21.4898 21.2182 20.9624 21.2182C20.6812 21.2182 20.2944 21.2885 19.8023 21.4291L19.9868 18.8715C20.186 18.9008 20.3413 18.9155 20.4526 18.9155C20.9214 18.9155 21.311 18.7661 21.6216 18.4672C21.938 18.1684 22.0962 17.8139 22.0962 17.4037C22.0962 17.0112 21.979 16.6977 21.7446 16.4633C21.5103 16.2289 21.188 16.1118 20.7778 16.1118C20.356 16.1118 20.0132 16.2407 19.7495 16.4985C19.4858 16.7504 19.3071 17.1957 19.2134 17.8344Z" fill="#FDF9F5"/>
</svg>
