<svg width="43" height="39" viewBox="0 0 43 39" fill="none" xmlns="http://www.w3.org/2000/svg">
<path d="M13.0444 0.0926118C8.46244 0.442612 4.38398 3.49261 2.11818 7.44261C-2.01063 14.7926 0.204828 24.6426 6.09593 30.6426C11.987 36.6426 20.8489 39.1926 29.3079 38.9426C32.2786 38.8426 35.35 38.3926 37.8172 36.6926C41.3922 34.1926 42.7517 29.5926 42.9027 25.2426C43.2552 16.4926 41.946 9.99261 34.6955 4.94261C27.4449 -0.0573883 21.5538 -0.207388 13.0444 0.0926118Z" fill="#9291D8"/>
<path d="M21.8941 24.5844H15.3726V21.6401L21.8941 13.8881H25.0142V21.8071H26.6314V24.5844H25.0142V26.9926H21.8941V24.5844ZM21.8941 21.8071V17.7553L18.4487 21.8071H21.8941Z" fill="#FDF9F5"/>
</svg>
