<svg width="43" height="39" viewBox="0 0 43 39" fill="none" xmlns="http://www.w3.org/2000/svg">
<path d="M13.0444 0.0926118C8.46244 0.442612 4.38398 3.49261 2.11818 7.44261C-2.01063 14.7926 0.204828 24.6426 6.09593 30.6426C11.987 36.6426 20.8489 39.1926 29.3079 38.9426C32.2786 38.8426 35.35 38.3926 37.8172 36.6926C41.3922 34.1926 42.7517 29.5926 42.9027 25.2426C43.2552 16.4926 41.946 9.99261 34.6955 4.94261C27.4449 -0.0573883 21.5538 -0.207388 13.0444 0.0926118Z" fill="#D09D4F"/>
<path d="M17.1919 14.1078H25.6909V16.9643H19.9341L19.6265 18.8979C20.0249 18.7104 20.4175 18.5698 20.8042 18.476C21.1968 18.3823 21.5835 18.3354 21.9644 18.3354C23.2534 18.3354 24.2993 18.725 25.1021 19.5043C25.9048 20.2836 26.3062 21.2651 26.3062 22.4487C26.3062 23.2807 26.0982 24.0805 25.6821 24.8481C25.272 25.6157 24.686 26.2016 23.9243 26.6059C23.1685 27.0102 22.1987 27.2123 21.0151 27.2123C20.1655 27.2123 19.436 27.1332 18.8267 26.975C18.2232 26.811 17.7075 26.5707 17.2798 26.2543C16.8579 25.9321 16.5151 25.5688 16.2515 25.1645C15.9878 24.7602 15.7681 24.2563 15.5923 23.6528L19.2134 23.2573C19.3013 23.8373 19.5064 24.2797 19.8286 24.5844C20.1509 24.8832 20.5347 25.0327 20.98 25.0327C21.478 25.0327 21.8882 24.8452 22.2105 24.4702C22.5386 24.0893 22.7026 23.5239 22.7026 22.7739C22.7026 22.0063 22.5386 21.4438 22.2105 21.0864C21.8823 20.7289 21.4458 20.5502 20.9009 20.5502C20.5552 20.5502 20.2212 20.6352 19.8989 20.8051C19.6587 20.9282 19.395 21.1508 19.1079 21.4731L16.0581 21.0336L17.1919 14.1078Z" fill="#FDF9F5"/>
</svg>
