<svg width="43" height="39" viewBox="0 0 43 39" fill="none" xmlns="http://www.w3.org/2000/svg">
<path d="M13.0444 0.0926118C8.46244 0.442612 4.38398 3.49261 2.11818 7.44261C-2.01063 14.7926 0.204828 24.6426 6.09593 30.6426C11.987 36.6426 20.8489 39.1926 29.3079 38.9426C32.2786 38.8426 35.35 38.3926 37.8172 36.6926C41.3922 34.1926 42.7517 29.5926 42.9027 25.2426C43.2552 16.4926 41.946 9.99261 34.6955 4.94261C27.4449 -0.0573883 21.5538 -0.207388 13.0444 0.0926118Z" fill="#9291D8"/>
<path d="M25.1006 16.0156L21.541 16.4551C21.4473 15.957 21.2891 15.6055 21.0664 15.4004C20.8496 15.1953 20.5801 15.0928 20.2578 15.0928C19.6777 15.0928 19.2266 15.3857 18.9043 15.9717C18.6699 16.3936 18.4971 17.2959 18.3857 18.6787C18.8135 18.2451 19.2529 17.9258 19.7041 17.7207C20.1553 17.5098 20.6768 17.4043 21.2686 17.4043C22.417 17.4043 23.3867 17.8145 24.1777 18.6348C24.9746 19.4551 25.373 20.4951 25.373 21.7549C25.373 22.6045 25.1709 23.3809 24.7666 24.084C24.3682 24.7871 23.8115 25.3203 23.0967 25.6836C22.3877 26.041 21.4971 26.2197 20.4248 26.2197C19.1357 26.2197 18.1016 26 17.3223 25.5605C16.543 25.1211 15.9189 24.4209 15.4502 23.46C14.9873 22.4932 14.7559 21.2158 14.7559 19.6279C14.7559 17.3018 15.2451 15.5996 16.2236 14.5215C17.2021 13.4375 18.5586 12.8955 20.293 12.8955C21.3184 12.8955 22.127 13.0156 22.7188 13.2559C23.3164 13.4902 23.8115 13.8359 24.2041 14.293C24.5967 14.75 24.8955 15.3242 25.1006 16.0156ZM18.5088 21.7549C18.5088 22.4521 18.6846 23 19.0361 23.3984C19.3877 23.791 19.8184 23.9873 20.3281 23.9873C20.7969 23.9873 21.1895 23.8086 21.5059 23.4512C21.8223 23.0938 21.9805 22.5605 21.9805 21.8516C21.9805 21.125 21.8164 20.5713 21.4883 20.1904C21.1602 19.8096 20.7529 19.6191 20.2666 19.6191C19.7686 19.6191 19.3496 19.8037 19.0098 20.1729C18.6758 20.542 18.5088 21.0693 18.5088 21.7549Z" fill="#FDF9F5"/>
</svg>
