<svg width="31" height="184" viewBox="0 0 31 184" fill="none" xmlns="http://www.w3.org/2000/svg">
<path d="M31.9 7C33.7 18.8 35.5 30.7 34 42.5C32.5 54.3 27.4 66.2 17.8 73.2C13.3 76.5 7.8 78.7 4.4 83.1C-2.3 91.7 1.7 104.2 7 113.7C12.3 123.2 19.1 133.3 17 144C15.4 152.5 8.5 159.6 8.5 168.2C8.6 174.4 12.7 180.3 18.5 182.5C24.3 184.7 31.3 182.9 35.4 178.3C38.2 175.1 39.6 171 40.8 167C47.7 144.3 52 120.7 53.6 97C55 76.9 53.5 54.3 38.7 40.6" fill="#FFA959"/>
<path d="M49.9544 1C49.8544 12.9 49.6544 25 46.3544 36.4C43.0544 47.8 36.0544 58.7 25.4544 64.1C20.4544 66.6 14.7544 67.9 10.6544 71.7C2.65439 79.1 4.55439 92.1 8.35439 102.3C12.0544 112.5 17.0544 123.6 13.3544 133.8C10.4544 141.9 2.45439 147.8 1.15439 156.3C0.254387 162.4 3.35439 168.9 8.75439 172C14.1544 175.1 21.3544 174.5 26.0544 170.6C29.3544 167.9 31.3544 164.1 33.1544 160.3C43.5544 139 51.6544 116.4 57.0544 93.3C61.6544 73.6 63.7544 51 51.4544 35.1" stroke="#3A3A3A" stroke-miterlimit="10"/>
</svg>
